<svg width="22" height="20" viewBox="0 0 22 20" fill="none" xmlns="http://www.w3.org/2000/svg">
<path fill-rule="evenodd" clip-rule="evenodd" d="M5.73649 0.5C2.82903 0.5 0 3.052 0 6.51351C0 10.3318 2.80141 13.5735 5.38882 15.7763C6.70549 16.8973 8.01844 17.7929 9.00042 18.4077C9.4922 18.7157 9.90294 18.9544 10.1922 19.1169C10.4093 19.2388 10.5582 19.318 10.6223 19.3516C10.7407 19.4132 10.8652 19.4527 11 19.4527C11.1193 19.4527 11.2378 19.4238 11.3438 19.3693C11.5003 19.2886 11.6543 19.2031 11.8078 19.1169C12.0971 18.9544 12.5078 18.7157 12.9996 18.4077C13.9816 17.7929 15.2945 16.8973 16.6112 15.7763C19.1986 13.5735 22 10.3318 22 6.51351C22 3.052 19.171 0.5 16.2635 0.5C13.9702 0.5 12.1192 1.72621 11 3.60482C9.88078 1.72621 8.02981 0.5 5.73649 0.5ZM5.73649 2C3.65746 2 1.5 3.88043 1.5 6.51351C1.5 9.62088 3.8236 12.4738 6.36118 14.6342C7.60701 15.6948 8.85656 16.5479 9.79645 17.1364C10.2656 17.4301 10.6557 17.6567 10.9269 17.8091L11 17.85L11.0731 17.8091C11.3443 17.6567 11.7344 17.4301 12.2035 17.1364C13.1434 16.5479 14.393 15.6948 15.6388 14.6342C18.1764 12.4738 20.5 9.62088 20.5 6.51351C20.5 3.88043 18.3425 2 16.2635 2C14.1581 2 12.4627 3.38899 11.7115 5.64258C11.6094 5.94883 11.3228 6.15541 11 6.15541C10.6772 6.15541 10.3906 5.94883 10.2885 5.64258C9.53729 3.38899 7.84185 2 5.73649 2Z" fill="#24292F"/>
</svg>
